# xmcd
#
# Track frame offsets: 
#        150
#        28047
#        56349
#        71489
#        97803
#        113043
#        126943
#        152846
#        177181
#        201771
#        224709
#
# Disc length: 3458 seconds
#
# Revision: 0
# Processed by: cddbd v1.5.2PL0 Copyright (c) Steve Scherf et al.
# Submitted via: ExactAudioCopy v0.99pb4
#
DISCID=980d800b
DTITLE=Tom Waits - WXRT Radio broadcast 1976-11-21
DYEAR=1976
DGENRE=Blues
TTITLE0=Emotional weather report
TTITLE1=Invitation to the Blues
TTITLE2=Virginia Avenue
TTITLE3=Jitterbug boy
TTITLE4=I can't wait to get off work
TTITLE5=Fumblin' with the Blues
TTITLE6=Pasties and a G-String
TTITLE7=Small change
TTITLE8=Eggs and sausage
TTITLE9=The piano has been drinking
TTITLE10=Tom Traubert's Blues
EXTD=
EXTT0=
EXTT1=
EXTT2=
EXTT3=
EXTT4=
EXTT5=
EXTT6=
EXTT7=
EXTT8=
EXTT9=
EXTT10=
PLAYORDER=
